<svg width="24" height="24" viewBox="0 0 24 24" fill="none" xmlns="http://www.w3.org/2000/svg">
<g transform="translate(1.8744 2.99945)">
<path id="Vector" d="M14.625 0.599609C15.9577 0.599609 17.2354 1.1299 18.1777 2.07227C19.1201 3.01464 19.6504 4.29229 19.6504 5.625C19.6504 8.24999 18.1305 11.0441 14.918 13.9346C13.4633 15.2423 11.879 16.3993 10.1904 17.3867C10.1735 17.3958 10.154 17.4007 10.1348 17.4004H10.1191C10.0962 17.4006 10.0728 17.3941 10.0527 17.3828C9.83762 17.26 7.46223 15.9054 5.13867 13.7676C2.77237 11.5903 0.599609 8.72855 0.599609 5.625C0.599609 4.57034 0.932158 3.54211 1.54883 2.68652C2.16548 1.83112 3.03573 1.19089 4.03613 0.857422C5.03647 0.524044 6.11656 0.513802 7.12305 0.828125C8.12973 1.14259 9.01174 1.76662 9.64453 2.61035L10.125 3.25L10.6055 2.61035C11.0735 1.98627 11.6802 1.47973 12.3779 1.13086C13.0757 0.781985 13.8449 0.599609 14.625 0.599609Z" stroke="currentColor" stroke-width="1.5"/>
</g>
</svg>
