<svg width="24" height="24" viewBox="0 0 24 24" fill="none" xmlns="http://www.w3.org/2000/svg">
<g id="Icon">
<path id="Vector" d="M12 4C16.694 4 20.796 7.16831 22.8662 11.8203C22.9388 12.0214 23 12.3103 23 12.5C23 12.6556 22.9388 12.9786 22.8662 13.1797C20.796 17.8287 16.694 21 12 21C7.30601 21 3.20495 17.8315 1.13281 13.1465C1.05998 12.9784 1 12.6889 1 12.5C1 12.3103 1.06001 12.0214 1.13281 11.8203C3.20382 7.17214 7.30607 4 12 4ZM12 7.03613C8.96354 7.03613 6.5 9.48326 6.5 12.5C6.5 15.5167 8.96745 17.9639 12.0039 17.9639C15.0377 17.9638 17.5 15.5148 17.5 12.5C17.5 9.48326 15.0365 7.03613 12 7.03613ZM12 8.7002C14.0987 8.7002 15.7998 10.4013 15.7998 12.5C15.7998 14.5987 14.0987 16.2998 12 16.2998C9.90134 16.2998 8.20022 14.5987 8.2002 12.5C8.2002 10.4013 9.90132 8.7002 12 8.7002Z" fill="currentColor"/>
</g>
</svg>
