<svg width="24" height="24" viewBox="0 0 24 24" fill="none" xmlns="http://www.w3.org/2000/svg">
<g id="Icon">
<path id="Vector" d="M17.4297 2.80687C18.3691 2.36127 19.5287 2.82806 19.8252 3.87523C20.4318 6.01966 20.75 8.23503 20.75 10.5002C20.75 12.7654 20.4319 14.9808 19.8252 17.1252C19.5286 18.1722 18.369 18.6391 17.4297 18.1936L12.085 15.6565C11.9786 15.606 11.8656 15.5726 11.75 15.5539V19.0002C11.7499 20.5189 10.5187 21.7502 9 21.7502C7.48129 21.7502 6.25012 20.5189 6.25 19.0002V15.5364H6C4.48143 15.5364 3.25035 14.3048 3.25 12.7864V8.2141C3.25023 6.69551 4.48136 5.4641 6 5.4641H11.5498C11.7349 5.46404 11.9177 5.42326 12.085 5.34398L17.4297 2.80687ZM7.75 19.0002C7.75012 19.6905 8.30972 20.2502 9 20.2502C9.69028 20.2502 10.2499 19.6905 10.25 19.0002V15.5364H7.75V19.0002ZM18.3818 4.28343C18.3511 4.17582 18.2172 4.09354 18.0723 4.16234L12.7285 6.69847C12.3601 6.87332 11.9576 6.96404 11.5498 6.9641H6C5.30978 6.9641 4.75023 7.52393 4.75 8.2141V12.7864C4.75035 13.4764 5.30986 14.0364 6 14.0364H11.5498C11.9576 14.0364 12.3601 14.1271 12.7285 14.302L18.0723 16.8381C18.2171 16.9068 18.351 16.8245 18.3818 16.717C18.9519 14.702 19.25 12.6238 19.25 10.5002C19.25 8.3767 18.9519 6.29852 18.3818 4.28343Z" fill="currentColor"/>
</g>
</svg>
