<svg width="24" height="24" viewBox="0 0 24 24" fill="none" xmlns="http://www.w3.org/2000/svg">
<g id="Icon">
<path id="Vector" d="M11.9888 1C12.1345 1.15308 12.2846 1.29822 12.438 1.43555C14.5832 3.35659 17.4163 3.77616 19.2202 3.82324C19.349 3.8266 19.4727 3.82815 19.5903 3.82812C19.8028 3.82812 19.9961 3.8227 20.1665 3.81543C20.3371 3.80815 20.4849 3.79878 20.606 3.78906C20.8481 3.76964 20.9839 3.75 20.9839 3.75V13.375C20.9839 13.7296 20.9482 14.0774 20.8823 14.418C20.8494 14.5881 20.809 14.7564 20.7612 14.9229C20.5225 15.7556 20.1056 16.5414 19.5786 17.2715C19.3677 17.5637 19.1396 17.8473 18.8979 18.1211C18.0527 19.0789 17.0457 19.9208 16.0659 20.624C15.7859 20.825 15.5081 21.0146 15.2368 21.1924C13.4739 22.3476 11.9888 23 11.9888 23C11.9241 22.9715 2.99463 19.0263 2.99463 13.375V3.75C2.99463 3.75 3.53741 3.82812 4.38818 3.82812C6.27188 3.82812 9.6609 3.44731 11.9888 1Z" fill="currentColor"/>
<path id="Vector_2" d="M16.0728 8.78413C16.192 8.47513 16.5401 8.32143 16.8491 8.44038C17.158 8.5597 17.3119 8.90674 17.1929 9.21577L16.52 10.9609H17.2339C17.5653 10.9609 17.8345 11.2291 17.8345 11.5605C17.8343 11.8917 17.5651 12.1601 17.2339 12.1601H16.0571L14.647 15.8173C14.5548 16.0562 14.3217 16.2104 14.0659 16.2011C13.81 16.1916 13.5875 16.0204 13.5132 15.7753L12.4165 12.1601H11.6626L10.4507 15.7919C10.3696 16.0343 10.1438 16.1983 9.88818 16.2011C9.6328 16.2038 9.40331 16.045 9.31689 15.8046L8.00928 12.1601H6.49463C6.16338 12.1601 5.89522 11.8917 5.89502 11.5605C5.89502 11.2291 6.16326 10.9609 6.49463 10.9609H7.57959L6.94873 9.2021C6.83729 8.89043 6.99946 8.5474 7.31104 8.4355C7.62275 8.32386 7.96566 8.4862 8.07764 8.7978L8.854 10.9609H10.7993L11.5181 8.80952L11.5552 8.72065C11.6589 8.52319 11.8669 8.39725 12.0952 8.40034C12.3563 8.40405 12.5848 8.57632 12.6606 8.82612L13.3071 10.9609H15.2329L16.0728 8.78413ZM9.28369 12.1601L9.86084 13.7685L10.3979 12.1601H9.28369ZM13.6714 12.1601L14.1548 13.7568L14.771 12.1601H13.6714Z" fill="white"/>
</g>
</svg>
